<svg xmlns="http://www.w3.org/2000/svg" width="1080" height="1920" viewBox="0 0 1080 1920">
  <defs>
    <linearGradient id="background" x1="0" y1="0" x2="1" y2="1">
      <stop offset="0" stop-color="#fffdf3"/>
      <stop offset="0.64" stop-color="#f4f3ec"/>
      <stop offset="1" stop-color="#fae24c"/>
    </linearGradient>
    <radialGradient id="court" cx="50%" cy="45%" r="55%">
      <stop offset="0" stop-color="#fae24c" stop-opacity="0.92"/>
      <stop offset="1" stop-color="#ef5b37" stop-opacity="0.08"/>
    </radialGradient>
  </defs>
  <rect width="1080" height="1920" fill="url(#background)"/>
  <circle cx="750" cy="860" r="430" fill="url(#court)"/>
  <path d="M760 570c112 0 202 91 202 203s-90 203-202 203-203-91-203-203 91-203 203-203Z" fill="#242424" opacity="0.08"/>
  <path d="M630 1100c72-218 210-339 390-363v533H575Z" fill="#1c1c1c" opacity="0.9"/>
  <path d="M742 811c56-46 115-50 176-8l-17 60c-50-23-95-17-135 20Z" fill="#fae24c"/>
  <text x="72" y="96" font-family="Arial, sans-serif" font-size="26" font-weight="700" fill="#171717">SEGWAY-NINEBOT · 九号公司</text>
  <circle cx="992" cy="80" r="38" fill="#fae24c"/>
  <text x="992" y="91" text-anchor="middle" font-family="Arial, sans-serif" font-size="26" font-weight="700">九</text>
  <text x="72" y="270" font-family="Arial, sans-serif" font-size="112" font-weight="800" fill="#171717">夏日羽毛</text>
  <text x="72" y="390" font-family="Arial, sans-serif" font-size="112" font-weight="800" fill="#171717">球挑战赛</text>
  <text x="76" y="458" font-family="Arial, sans-serif" font-size="34" fill="#333">零基础也能参加，现场自由组队</text>
  <g font-family="Arial, sans-serif" fill="#171717">
    <text x="72" y="1430" font-size="25" font-weight="700">活动时间 / 地点</text>
    <text x="72" y="1472" font-size="30">2026-09-18 18:30–20:30  ·  九号园区体育馆</text>
    <text x="72" y="1560" font-size="25" font-weight="700">参与对象</text>
    <text x="72" y="1602" font-size="30">全体员工</text>
    <text x="72" y="1690" font-size="25" font-weight="700">参与方式</text>
    <text x="72" y="1732" font-size="30">小组循环赛 · 三局两胜</text>
  </g>
  <text x="72" y="1846" font-family="Arial, sans-serif" font-size="22" fill="#333">九号行政 · 员工活动</text>
  <text x="1008" y="1846" text-anchor="end" font-family="Arial, sans-serif" font-size="20" fill="#333">UI FIXTURE</text>
</svg>
